<?xml version="1.0" encoding="UTF-8"?>
<svg id="Layer_1" xmlns="http://www.w3.org/2000/svg" xmlns:xlink="http://www.w3.org/1999/xlink" version="1.1" viewBox="0 0 601.2 284.1">
  <!-- Generator: Adobe Illustrator 29.5.1, SVG Export Plug-In . SVG Version: 2.1.0 Build 141)  -->
  <defs>
    <style>
      .st0 {
        fill: url(#linear-gradient2);
      }

      .st1 {
        fill: url(#linear-gradient1);
      }

      .st2 {
        fill: url(#linear-gradient9);
      }

      .st3 {
        fill: url(#linear-gradient3);
      }

      .st4 {
        fill: url(#linear-gradient6);
      }

      .st5 {
        fill: url(#linear-gradient8);
      }

      .st6 {
        fill: url(#linear-gradient7);
      }

      .st7 {
        fill: url(#linear-gradient5);
      }

      .st8 {
        fill: url(#linear-gradient4);
      }

      .st9 {
        fill: url(#linear-gradient18);
      }

      .st10 {
        fill: url(#linear-gradient13);
      }

      .st11 {
        fill: url(#linear-gradient12);
      }

      .st12 {
        fill: url(#linear-gradient15);
      }

      .st13 {
        fill: url(#linear-gradient16);
      }

      .st14 {
        fill: url(#linear-gradient11);
      }

      .st15 {
        fill: url(#linear-gradient10);
      }

      .st16 {
        fill: url(#linear-gradient17);
      }

      .st17 {
        fill: url(#linear-gradient14);
      }

      .st18 {
        fill: url(#linear-gradient19);
      }

      .st19 {
        fill: url(#linear-gradient23);
      }

      .st20 {
        fill: url(#linear-gradient22);
      }

      .st21 {
        fill: url(#linear-gradient24);
      }

      .st22 {
        fill: url(#linear-gradient25);
      }

      .st23 {
        fill: url(#linear-gradient21);
      }

      .st24 {
        fill: url(#linear-gradient20);
      }

      .st25 {
        fill: url(#linear-gradient26);
      }

      .st26 {
        fill: url(#linear-gradient);
      }
    </style>
    <linearGradient id="linear-gradient" x1="60.5" y1="258.9" x2="538.2" y2="258.9" gradientUnits="userSpaceOnUse">
      <stop offset=".1" stop-color="#c1944e"/>
      <stop offset=".6" stop-color="#fefbeb"/>
      <stop offset="1" stop-color="#b07d2b"/>
    </linearGradient>
    <linearGradient id="linear-gradient1" x1="60.5" y1="258.8" x2="538.2" y2="258.8" xlink:href="#linear-gradient"/>
    <linearGradient id="linear-gradient2" x1="60.5" y1="258.5" x2="538.2" y2="258.5" xlink:href="#linear-gradient"/>
    <linearGradient id="linear-gradient3" x1="60.5" x2="538.2" xlink:href="#linear-gradient"/>
    <linearGradient id="linear-gradient4" x1="60.5" y1="258.7" x2="538.2" y2="258.7" xlink:href="#linear-gradient"/>
    <linearGradient id="linear-gradient5" x1="60.5" y1="258.7" x2="538.2" y2="258.7" xlink:href="#linear-gradient"/>
    <linearGradient id="linear-gradient6" x1="60.5" y1="258.7" x2="538.2" y2="258.7" xlink:href="#linear-gradient"/>
    <linearGradient id="linear-gradient7" x1="60.5" y1="258.4" x2="538.2" y2="258.4" xlink:href="#linear-gradient"/>
    <linearGradient id="linear-gradient8" x1="60.5" y1="258.5" x2="538.2" y2="258.5" xlink:href="#linear-gradient"/>
    <linearGradient id="linear-gradient9" x1="60.5" y1="258.4" x2="538.2" y2="258.4" xlink:href="#linear-gradient"/>
    <linearGradient id="linear-gradient10" x1="60.5" y1="258.8" x2="538.2" y2="258.8" xlink:href="#linear-gradient"/>
    <linearGradient id="linear-gradient11" x1="60.5" y1="259.4" x2="538.2" y2="259.4" xlink:href="#linear-gradient"/>
    <linearGradient id="linear-gradient12" x1="60.5" y1="260.5" x2="538.2" y2="260.5" xlink:href="#linear-gradient"/>
    <linearGradient id="linear-gradient13" x1="-83" y1="199" x2="665.6" y2="199" gradientUnits="userSpaceOnUse">
      <stop offset="0" stop-color="#e1e2e2"/>
      <stop offset=".3" stop-color="#929497"/>
      <stop offset=".7" stop-color="#fff"/>
      <stop offset="1" stop-color="#a6a7aa"/>
    </linearGradient>
    <linearGradient id="linear-gradient14" x1="-83" x2="665.6" xlink:href="#linear-gradient13"/>
    <linearGradient id="linear-gradient15" x1="-83" x2="665.6" xlink:href="#linear-gradient13"/>
    <linearGradient id="linear-gradient16" x1="-83" x2="665.6" xlink:href="#linear-gradient13"/>
    <linearGradient id="linear-gradient17" x1="-83" x2="665.6" xlink:href="#linear-gradient13"/>
    <linearGradient id="linear-gradient18" x1="-83" y1="199" x2="665.6" y2="199" xlink:href="#linear-gradient13"/>
    <linearGradient id="linear-gradient19" x1="-2.7" y1="79.7" x2="589.8" y2="79.7" xlink:href="#linear-gradient13"/>
    <linearGradient id="linear-gradient20" x1="-2.7" y1="63.3" x2="589.8" y2="63.3" xlink:href="#linear-gradient13"/>
    <linearGradient id="linear-gradient21" x1="-2.7" y1="94.9" x2="589.8" y2="94.9" xlink:href="#linear-gradient13"/>
    <linearGradient id="linear-gradient22" x1="-2.7" y1="78.7" x2="589.8" y2="78.7" xlink:href="#linear-gradient13"/>
    <linearGradient id="linear-gradient23" x1="-2.7" y1="63.3" x2="589.8" y2="63.3" xlink:href="#linear-gradient13"/>
    <linearGradient id="linear-gradient24" x1="-2.7" y1="62.6" x2="589.8" y2="62.6" xlink:href="#linear-gradient13"/>
    <linearGradient id="linear-gradient25" x1="-2.7" y1="63.5" x2="589.8" y2="63.5" xlink:href="#linear-gradient13"/>
    <linearGradient id="linear-gradient26" x1="-2.7" y1="78.7" x2="589.8" y2="78.7" xlink:href="#linear-gradient13"/>
  </defs>
  <g>
    <path class="st26" d="M74.7,257.2h-6.3c-.9,0-1.7.7-1.7,1.7s.7,1.7,1.7,1.7h6.3c.9,0,1.7-.7,1.7-1.7s-.7-1.7-1.7-1.7Z"/>
    <path class="st1" d="M118.2,255.9l6.5-7.6c1-1.2.9-3.1-.3-4.1-1.2-1-3.1-.9-4.1.3l-10.2,11.9v-10c0-1.6-1.3-2.9-2.9-2.9s-2.9,1.3-2.9,2.9v24.8c0,1.6,1.3,2.9,2.9,2.9s2.9-1.3,2.9-2.9v-5.8l4.1-4.8,7.1,12c.5.9,1.5,1.4,2.5,1.4s1-.1,1.5-.4c1.4-.8,1.8-2.6,1-4l-8.1-13.7Z"/>
    <path class="st0" d="M190.9,245c-.5-1.2-1.6-1.9-2.9-1.9-1.2,0-2.4.7-2.9,1.9l-9.5,25c-.6,1.5.2,3.2,1.7,3.8.3.1.7.2,1,.2,1.2,0,2.3-.7,2.7-1.9l1.4-3.7h11l1.4,3.7c.4,1.2,1.5,1.9,2.7,1.9s.7,0,1-.2c1.5-.6,2.3-2.2,1.7-3.8l-9.5-25ZM184.4,263.4l3.6-9.5,3.6,9.5h-7.2Z"/>
    <path class="st3" d="M530.2,257.2h-6.3c-.9,0-1.7.7-1.7,1.7s.7,1.7,1.7,1.7h6.3c.9,0,1.7-.7,1.7-1.7s-.7-1.7-1.7-1.7Z"/>
    <path class="st8" d="M161.1,242.5c-1.6,0-2.9,1.3-2.9,2.9v18.8c0,1.2-.7,4.8-5.1,4.8s-4.6-2.1-4.6-3.4h0v-19.9c0-1.6-1.3-2.9-2.9-2.9s-2.9,1.3-2.9,2.9v19.8c0,.6,0,3.9,2.6,6.5,1.9,1.9,4.5,2.9,7.9,2.9,7.7,0,10.8-6.2,11-10.4v-19c0-1.6-1.3-2.9-2.9-2.9Z"/>
    <path class="st7" d="M347.9,242.5c-1.6,0-2.9,1.3-2.9,2.9v18.8c0,1.2-.7,4.8-5.1,4.8s-4.6-2.1-4.6-3.4h0v-19.9c0-1.6-1.3-2.9-2.9-2.9s-2.9,1.3-2.9,2.9v19.8c0,.6,0,3.9,2.6,6.5,1.9,1.9,4.5,2.9,7.9,2.9,7.7,0,10.8-6.2,11-10.4v-19c0-1.6-1.3-2.9-2.9-2.9Z"/>
    <path class="st4" d="M459.6,242.5c-1.6,0-2.9,1.3-2.9,2.9v18.8c0,1.2-.7,4.8-5.1,4.8s-4.6-2.1-4.6-3.4h0v-19.9c0-1.6-1.3-2.9-2.9-2.9s-2.9,1.3-2.9,2.9v19.8c0,.6,0,3.9,2.6,6.5,1.9,1.9,4.5,2.9,7.9,2.9,7.7,0,10.8-6.2,11-10.4v-19c0-1.6-1.3-2.9-2.9-2.9Z"/>
    <path class="st6" d="M230.9,268.6h-12v-23.2c0-1.6-1.3-2.9-2.9-2.9s-2.9,1.3-2.9,2.9v26.1c0,1.6,1.3,2.9,2.9,2.9h14.9c1.6,0,2.9-1.3,2.9-2.9s-1.3-2.9-2.9-2.9Z"/>
    <path class="st5" d="M258.8,245c-.5-1.2-1.6-1.9-2.9-1.9-1.2,0-2.4.7-2.9,1.9l-9.5,25c-.6,1.5.2,3.2,1.7,3.8.3.1.7.2,1,.2,1.2,0,2.3-.7,2.7-1.9l1.4-3.7h11l1.4,3.7c.4,1.2,1.5,1.9,2.7,1.9s.7,0,1-.2c1.5-.6,2.3-2.2,1.7-3.8l-9.5-25ZM252.3,263.4l3.6-9.5,3.6,9.5h-7.2Z"/>
    <path class="st2" d="M317.7,268.6h-12v-23.2c0-1.6-1.3-2.9-2.9-2.9s-2.9,1.3-2.9,2.9v26.1c0,1.6,1.3,2.9,2.9,2.9h14.9c1.6,0,2.9-1.3,2.9-2.9s-1.3-2.9-2.9-2.9Z"/>
    <path class="st15" d="M499.1,252.7c0-6.5-5.9-9.1-9.9-9.2h-9.1c0,0-.2,0-.2,0,0,0-.2,0-.2,0-1.6,0-2.9,1.3-2.9,2.9v24.8c0,1.6,1.3,2.9,2.9,2.9s2.9-1.3,2.9-2.9v-8.7h5.3l5.9,10c.5.9,1.5,1.4,2.5,1.4s1-.1,1.5-.4c1.4-.8,1.8-2.6,1-4l-5-8.5c2.8-1.5,5.5-4.2,5.5-8.4ZM482.5,249.3h6.5c.8,0,4.3.4,4.3,3.4s-3.5,3.8-4.4,4h-6.4v-7.4Z"/>
    <path class="st14" d="M419.1,243.5h-9.1c-1.6,0-2.9,1.3-2.9,2.9v12.3c-.1.3-.2.6-.2,1s0,.7.2,1v11.9c0,1.6,1.3,2.9,2.9,2.9s2.9-1.3,2.9-2.9v-9.9h6.8c3.2-.7,9.3-3.6,9.3-9.9s-5.9-9.1-9.9-9.2ZM418.8,256.7h-5.9v-7.4h6c.8,0,4.3.4,4.3,3.4s-3.5,3.8-4.4,4Z"/>
    <path class="st11" d="M390.9,244.5c-1.3-.3-2.6.2-3.3,1.4l-7.6,13.6-8.4-13.7c-.7-1.1-2-1.6-3.3-1.3-1.3.4-2.1,1.5-2.1,2.8v25.8c0,1.6,1.3,2.9,2.9,2.9s2.9-1.3,2.9-2.9v-15.5l5.6,9.1c.5.9,1.5,1.4,2.5,1.4h0c1,0,2-.6,2.5-1.5l4.6-8.2v15.3c0,1.6,1.3,2.9,2.9,2.9s2.9-1.3,2.9-2.9v-26.5c0-1.3-.9-2.5-2.2-2.8Z"/>
  </g>
  <g>
    <polygon class="st10" points="171 209.5 159.7 173.5 150.1 173.5 166.2 224.6 166.3 224.6 175.8 224.6 175.8 224.6 191.9 173.5 182.4 173.5 171 209.5"/>
    <polygon class="st17" points="66.5 173.5 64 173.5 64 224.6 66.5 224.6 73.8 224.6 98 224.6 98 216 73.8 216 73.8 203.1 94.4 203.1 94.4 194.5 73.8 194.5 73.8 182.1 98 182.1 98 173.5 73.8 173.5 66.5 173.5"/>
    <polygon class="st12" points="249.2 173.5 246.7 173.5 246.7 224.6 249.2 224.6 256.5 224.6 280.7 224.6 280.7 216 256.5 216 256.5 203.1 277.1 203.1 277.1 194.5 256.5 194.5 256.5 182.1 280.7 182.1 280.7 173.5 256.5 173.5 249.2 173.5"/>
    <polygon class="st13" points="359 205.2 338.4 173.5 328.6 173.5 328.6 224.6 338.4 224.6 338.4 192.9 359 224.6 368.9 224.6 368.9 173.5 359 173.5 359 205.2"/>
    <polygon class="st16" points="433 173.5 420.1 173.5 420.1 182.1 433 182.1 433 224.6 442.9 224.6 442.9 182.1 455.8 182.1 455.8 173.5 442.9 173.5 433 173.5"/>
    <path class="st9" d="M522.7,194.4c-8.7-.6-8.7-4.4-8.7-8.1s2.6-5.2,7.4-5.2,11,4.4,11.1,4.4l2.8-3.5,2.8-3.5c-.8-.7-8.1-6.4-16.7-6.4s-16.3,7.3-16.3,14.1,0,6.2,2.5,10c2.8,4.2,7.7,6.5,14.6,7,4.3.3,7.3,1.2,8.3,2.7.8,1.1.8,3.2.8,5.3h0c0,1.4-3.1,5.5-9.7,5.5s-10.4-3.2-10.9-3.6l-1.5-1.5-6.5,6.1,1.5,1.6h0c.3.3,6.4,6.3,17.2,6.3s18.6-7.5,18.6-14.3v-.2c0-5.5,0-15.7-17.4-16.9Z"/>
  </g>
  <g>
    <path class="st18" d="M91.8,149h-.6c-9.1,0-16.7-3.1-22.8-9.2-6.1-6.1-9.2-13.8-9.2-22.9v-32.8c0-3.3-1.2-6.1-3.5-8.4-2.4-2.3-5.2-3.5-8.4-3.5h-16.1v34.1c0,3-.9,5.4-2.8,7.2-1.9,1.8-4.3,2.7-7.3,2.7s-5.3-.9-7.2-2.7c-1.8-1.8-2.7-4.2-2.7-7.2V20.5c0-3,.9-5.4,2.7-7.3,1.8-1.9,4.2-2.8,7.2-2.8s5.4.9,7.3,2.8c1.9,1.9,2.8,4.3,2.8,7.3v31.5h7.5c3.1-.2,5.7-1.5,7.8-3.8,2-2.3,3-5.1,3-8.2s.9-5.3,2.8-7.1c1.9-1.9,4.2-2.8,7.1-2.8s5.4.9,7.2,2.8c1.9,1.9,2.8,4.3,2.8,7.3,0,6.1-1.6,11.8-4.9,17.1,9.8,6.3,14.6,15.3,14.6,26.9v32.8c0,3.4,1.2,6.2,3.5,8.5,2.3,2.3,5.2,3.5,8.5,3.5h.6c6.6,0,9.9,3.4,9.9,10.1s-.9,5.4-2.7,7.2c-1.8,1.8-4.2,2.8-7.2,2.8Z"/>
    <path class="st24" d="M125.7,116.3h-6.5c-9.1,0-16.7-3.1-22.8-9.2-6.1-6.1-9.2-13.8-9.2-22.9V20.3c0-3,.9-5.4,2.8-7.2,1.8-1.8,4.2-2.7,7.2-2.7s5.4.9,7.2,2.7c1.9,1.8,2.8,4.2,2.8,7.2v64c0,3.4,1.1,6.2,3.5,8.6,2.3,2.3,5.2,3.5,8.5,3.5h6.5c3,0,5.3.9,7.2,2.8,1.8,1.9,2.7,4.3,2.7,7.3s-.9,5.4-2.7,7.2c-1.8,1.8-4.2,2.7-7.2,2.7Z"/>
    <path class="st23" d="M273.6,72.6c0-3.3-1.2-6.1-3.5-8.4-2.3-2.3-5.1-3.5-8.4-3.5s-7.1,1.5-9.5,4.6v41c0,3-.9,5.4-2.8,7.2-1.9,1.8-4.3,2.7-7.2,2.7s-5.4-.9-7.2-2.7c-1.8-1.8-2.7-4.2-2.7-7.2v-33.7c0-3.3-1.2-6.1-3.5-8.4-2.4-2.3-5.2-3.5-8.4-3.5s-6.2,1.2-8.5,3.4c-2.3,2.3-3.5,5.1-3.5,8.5v33.7c0,3-.9,5.4-2.7,7.2-1.8,1.8-4.2,2.7-7.2,2.7s-5.4-.9-7.2-2.7c-1.9-1.8-2.8-4.2-2.8-7.2v-33.7c0-9,3.1-16.6,9.3-22.7,6.2-6.1,13.7-9.2,22.7-9.2s14.7,2.5,20.7,7.6c5.9-5,12.8-7.6,20.7-7.6s16.5,3.1,22.6,9.2c6.1,6.1,9.2,13.7,9.2,22.7v44.3c0,3.4,1.2,6.2,3.5,8.5,2.3,2.3,5.1,3.5,8.5,3.5h.6c3,0,5.4.9,7.3,2.8,1.9,1.9,2.8,4.3,2.8,7.3s-.9,5.4-2.8,7.2c-1.9,1.8-4.3,2.8-7.3,2.8h-.6c-9,0-16.5-3.1-22.7-9.3-6.2-6.2-9.2-13.8-9.2-22.8v-44.3Z"/>
    <path class="st20" d="M339.3,40.7c10.6,0,19.6,3.6,26.9,10.9,7.3,7.3,11,16.3,11,27s-3.6,19.7-11,27c-7.3,7.3-16.2,11-26.9,11s-19.6-3.7-26.8-11c-7.2-7.3-10.9-16.3-10.9-27s3.6-19.7,10.9-27c7.3-7.3,16.2-10.9,26.8-10.9ZM339.3,60.8c-4.9,0-9.1,1.8-12.6,5.2-3.4,3.5-5.2,7.7-5.2,12.6s1.7,9.2,5.2,12.7c3.5,3.5,7.6,5.3,12.6,5.3s9.1-1.8,12.6-5.3c3.5-3.5,5.3-7.7,5.3-12.7s-1.8-9.2-5.3-12.6c-3.5-3.5-7.7-5.2-12.6-5.2Z"/>
    <path class="st19" d="M423,40.4c10.6,0,19.6,3.7,26.9,11,7.3,7.3,10.9,16.3,10.9,27s-3.7,19.6-11,26.9c-7.3,7.3-16.3,11-26.8,11s-19.5-3.7-26.8-11c-7.3-7.3-10.9-16.3-10.9-26.9V20.3c0-2.9.9-5.3,2.8-7.1,1.9-1.9,4.2-2.8,7.1-2.8s5.4.9,7.2,2.7c1.9,1.8,2.8,4.2,2.8,7.2v58.2c0,5,1.7,9.1,5.2,12.6,3.4,3.5,7.6,5.2,12.6,5.2s9.1-1.7,12.6-5.2c3.5-3.5,5.2-7.7,5.2-12.6s-1.7-9.2-5.2-12.7c-3.5-3.5-7.7-5.3-12.6-5.3s-5.4-.9-7.2-2.7c-1.8-1.8-2.7-4.2-2.7-7.2s.9-5.4,2.7-7.3c1.8-1.9,4.2-2.8,7.2-2.8Z"/>
    <path class="st21" d="M487.4,12.6c2.4,2.4,3.6,5.3,3.6,8.7s-1.2,6.3-3.6,8.7c-2.4,2.4-5.3,3.6-8.7,3.6s-6.3-1.2-8.7-3.6c-2.4-2.4-3.6-5.3-3.6-8.7s1.2-6.3,3.6-8.7c2.4-2.4,5.3-3.6,8.7-3.6s6.2,1.2,8.7,3.6ZM488.8,50.7c0-6.6-3.4-10-10.1-10s-5.4.9-7.2,2.7c-1.8,1.8-2.7,4.2-2.7,7.2v55.7c0,3,.9,5.4,2.7,7.2,1.8,1.8,4.2,2.7,7.2,2.7s5.4-.9,7.2-2.7c1.9-1.8,2.8-4.2,2.8-7.2v-55.7Z"/>
    <path class="st22" d="M516.9,20.5v85.8c0,3-.9,5.4-2.8,7.2-1.9,1.8-4.3,2.7-7.2,2.7s-5.3-.9-7.2-2.7c-1.8-1.8-2.8-4.2-2.8-7.2V20.5c0-3,.9-5.4,2.8-7.2,1.8-1.8,4.2-2.7,7.2-2.7,6.7,0,10,3.3,10,9.9Z"/>
    <path class="st25" d="M588.6,67.3l-18.9,18.6c-2.2,2.1-4.5,3.1-6.9,3.1s-5.2-1-7.2-3.1c-2-2.1-3-4.5-3-7.3s1.1-4.8,3.3-7l10.6-10.6c-1.3-.2-2.6-.3-3.8-.3-4.9,0-9.1,1.8-12.6,5.2-3.5,3.5-5.2,7.7-5.2,12.6s1.7,9.2,5.2,12.7c3.4,3.5,7.6,5.3,12.6,5.3h13.2c3,0,5.3.9,7.2,2.8,1.8,1.8,2.7,4.2,2.7,7.2s-.9,5.4-2.7,7.3c-1.8,1.9-4.2,2.8-7.2,2.8h-13.2c-10.6,0-19.6-3.7-26.8-11-7.2-7.3-10.9-16.3-10.9-27s3.6-19.7,10.9-27c7.3-7.3,16.2-10.9,26.8-10.9s19.9,3.9,27.3,11.6c2,2.1,3,4.4,3,6.8s-1.4,6-4.3,8.2Z"/>
  </g>
</svg>