<?xml version="1.0" encoding="UTF-8"?>
<svg id="Layer_1" xmlns="http://www.w3.org/2000/svg" xmlns:xlink="http://www.w3.org/1999/xlink" version="1.1" viewBox="0 0 541.88 197.32">
  <!-- Generator: Adobe Illustrator 29.5.1, SVG Export Plug-In . SVG Version: 2.1.0 Build 141)  -->
  <defs>
    <style>
      .st0 {
        fill: url(#linear-gradient2);
      }

      .st1 {
        fill: url(#linear-gradient1);
      }

      .st2 {
        fill: url(#linear-gradient9);
      }

      .st3 {
        fill: url(#linear-gradient3);
      }

      .st4 {
        fill: url(#linear-gradient6);
      }

      .st5 {
        fill: url(#linear-gradient8);
      }

      .st6 {
        fill: url(#linear-gradient7);
      }

      .st7 {
        fill: url(#linear-gradient5);
      }

      .st8 {
        fill: url(#linear-gradient4);
      }

      .st9 {
        fill: url(#linear-gradient18);
      }

      .st10 {
        fill: url(#linear-gradient13);
      }

      .st11 {
        fill: url(#linear-gradient12);
      }

      .st12 {
        fill: url(#linear-gradient15);
      }

      .st13 {
        fill: url(#linear-gradient16);
      }

      .st14 {
        fill: url(#linear-gradient11);
      }

      .st15 {
        fill: url(#linear-gradient10);
      }

      .st16 {
        fill: url(#linear-gradient17);
      }

      .st17 {
        fill: url(#linear-gradient14);
      }

      .st18 {
        fill: url(#linear-gradient19);
      }

      .st19 {
        fill: #231f20;
      }

      .st20 {
        fill: url(#linear-gradient);
      }

      .st21 {
        fill: #fff;
      }

      .st22 {
        display: none;
      }
    </style>
    <linearGradient id="linear-gradient" x1="2.35" y1="79.45" x2="541.88" y2="79.45" gradientUnits="userSpaceOnUse">
      <stop offset="0" stop-color="#e1e2e2"/>
      <stop offset=".34" stop-color="#929497"/>
      <stop offset=".7" stop-color="#fff"/>
      <stop offset="1" stop-color="#a6a7aa"/>
    </linearGradient>
    <linearGradient id="linear-gradient1" x1="447.68" y1="167.19" x2="530.29" y2="167.19" gradientUnits="userSpaceOnUse">
      <stop offset=".13" stop-color="#c1944e"/>
      <stop offset=".56" stop-color="#fefbeb"/>
      <stop offset="1" stop-color="#b07d2b"/>
    </linearGradient>
    <linearGradient id="linear-gradient2" x1="0" y1="165.03" x2="82.61" y2="165.03" xlink:href="#linear-gradient1"/>
    <linearGradient id="linear-gradient3" x1="0" y1="168.03" y2="168.03" xlink:href="#linear-gradient1"/>
    <linearGradient id="linear-gradient4" x1="0" y1="168.03" y2="168.03" xlink:href="#linear-gradient1"/>
    <linearGradient id="linear-gradient5" x1="0" y1="168.03" y2="168.03" xlink:href="#linear-gradient1"/>
    <linearGradient id="linear-gradient6" x1="0" y1="168.03" y2="168.03" xlink:href="#linear-gradient1"/>
    <linearGradient id="linear-gradient7" x1="0" y1="168.03" y2="168.03" xlink:href="#linear-gradient1"/>
    <linearGradient id="linear-gradient8" x1="0" y1="168.03" y2="168.03" xlink:href="#linear-gradient1"/>
    <linearGradient id="linear-gradient9" x1="0" y1="168.03" y2="168.03" xlink:href="#linear-gradient1"/>
    <linearGradient id="linear-gradient10" x1="0" y1="168.03" y2="168.03" xlink:href="#linear-gradient1"/>
    <linearGradient id="linear-gradient11" x1="0" y1="168.03" y2="168.03" xlink:href="#linear-gradient1"/>
    <linearGradient id="linear-gradient12" x1="0" y1="168.03" y2="168.03" xlink:href="#linear-gradient1"/>
    <linearGradient id="linear-gradient13" x1="0" y1="168.03" y2="168.03" xlink:href="#linear-gradient1"/>
    <linearGradient id="linear-gradient14" x1="0" y1="168.03" y2="168.03" xlink:href="#linear-gradient1"/>
    <linearGradient id="linear-gradient15" x1="0" y1="168.03" y2="168.03" xlink:href="#linear-gradient1"/>
    <linearGradient id="linear-gradient16" x1="0" y1="168.03" y2="168.03" xlink:href="#linear-gradient1"/>
    <linearGradient id="linear-gradient17" x1="0" y1="168.03" y2="168.03" xlink:href="#linear-gradient1"/>
    <linearGradient id="linear-gradient18" x1="0" y1="168.03" y2="168.03" xlink:href="#linear-gradient1"/>
    <linearGradient id="linear-gradient19" x1="0" y1="168.03" y2="168.03" xlink:href="#linear-gradient1"/>
  </defs>
  <rect class="st22" x="-162.19" y="-200.64" width="841.89" height="595.28"/>
  <g>
    <g>
      <g>
        <path class="st21" d="M77.09,138.46h-.54c-8.42,0-15.46-2.85-21.12-8.54-5.68-5.7-8.51-12.76-8.51-21.21v-30.44c0-3.02-1.09-5.63-3.29-7.77-2.21-2.15-4.8-3.24-7.83-3.24h-14.94v31.68c0,2.76-.86,4.97-2.59,6.68-1.75,1.7-3.97,2.54-6.73,2.54s-4.96-.84-6.64-2.54c-1.69-1.72-2.55-3.92-2.55-6.68V19.31c0-2.75.85-5,2.55-6.75,1.68-1.73,3.89-2.61,6.64-2.61s4.98.88,6.73,2.61c1.73,1.75,2.59,3.99,2.59,6.75v29.21l7,.14c2.92-.29,5.32-1.51,7.2-3.65,1.86-2.16,2.82-4.7,2.82-7.63,0-2.67.86-4.88,2.61-6.63,1.73-1.74,3.92-2.61,6.57-2.61s4.98.88,6.72,2.61c1.73,1.75,2.6,4,2.6,6.75,0,5.7-1.5,10.98-4.51,15.84,9.05,5.89,13.57,14.2,13.57,24.93v30.44c0,3.12,1.08,5.75,3.21,7.92,2.16,2.15,4.78,3.23,7.9,3.23h.54c6.13,0,9.19,3.12,9.19,9.37,0,2.75-.86,5-2.53,6.68-1.7,1.71-3.92,2.55-6.66,2.55Z"/>
        <path class="st21" d="M108.5,108.15h-6.04c-8.42,0-15.45-2.85-21.12-8.53-5.68-5.7-8.52-12.77-8.52-21.22V19.05c0-2.76.84-4.99,2.55-6.68,1.7-1.7,3.9-2.55,6.65-2.55s4.98.84,6.72,2.55c1.74,1.7,2.61,3.92,2.61,6.68v59.35c0,3.12,1.06,5.77,3.21,7.94,2.15,2.15,4.78,3.22,7.89,3.22h6.04c2.74,0,4.96.87,6.66,2.63,1.69,1.74,2.52,3.99,2.52,6.74s-.84,4.97-2.52,6.68c-1.7,1.7-3.92,2.54-6.66,2.54Z"/>
        <path class="st21" d="M245.65,67.66c0-3.03-1.08-5.62-3.24-7.77-2.14-2.15-4.74-3.26-7.75-3.26-3.64,0-6.58,1.43-8.78,4.29v38.01c0,2.76-.86,4.97-2.6,6.68-1.74,1.7-3.98,2.54-6.72,2.54s-4.98-.84-6.67-2.54c-1.69-1.72-2.53-3.92-2.53-6.68v-31.27c0-3.03-1.09-5.62-3.29-7.77-2.18-2.15-4.81-3.26-7.81-3.26s-5.73,1.07-7.88,3.18c-2.15,2.11-3.24,4.74-3.24,7.84v31.27c0,2.76-.84,4.97-2.53,6.68-1.68,1.7-3.92,2.54-6.65,2.54s-4.98-.84-6.71-2.54c-1.74-1.72-2.62-3.92-2.62-6.68v-31.27c0-8.35,2.85-15.37,8.59-21.06,5.72-5.69,12.72-8.54,21.05-8.54,7.22,0,13.62,2.34,19.2,7.02,5.49-4.68,11.87-7.02,19.19-7.02,8.33,0,15.31,2.85,20.98,8.54,5.68,5.69,8.5,12.71,8.5,21.06v41.05c0,3.12,1.08,5.75,3.24,7.92,2.14,2.15,4.77,3.23,7.88,3.23h.55c2.75,0,4.98.88,6.73,2.62,1.73,1.74,2.59,3.99,2.59,6.75s-.86,5-2.59,6.68c-1.76,1.71-3.99,2.55-6.73,2.55h-.55c-8.31,0-15.34-2.88-21.04-8.61-5.73-5.74-8.57-12.79-8.57-21.14v-41.05Z"/>
        <path class="st21" d="M306.67,38.05c9.88,0,18.19,3.37,24.94,10.11,6.79,6.77,10.16,15.09,10.16,25s-3.38,18.27-10.16,25.06c-6.75,6.8-15.07,10.19-24.94,10.19s-18.17-3.39-24.9-10.19c-6.72-6.8-10.08-15.15-10.08-25.06s3.37-18.23,10.08-25c6.73-6.74,15.03-10.11,24.9-10.11ZM306.67,56.63c-4.58,0-8.47,1.63-11.67,4.84-3.19,3.21-4.79,7.11-4.79,11.7s1.6,8.52,4.79,11.77c3.2,3.26,7.09,4.89,11.67,4.89s8.46-1.63,11.73-4.89c3.24-3.25,4.88-7.17,4.88-11.77s-1.65-8.49-4.88-11.7c-3.26-3.22-7.15-4.84-11.73-4.84Z"/>
        <path class="st21" d="M384.3,37.78c9.88,0,18.19,3.39,24.96,10.2,6.77,6.79,10.14,15.14,10.14,25.06s-3.4,18.14-10.21,24.93c-6.81,6.8-15.1,10.19-24.89,10.19s-18.06-3.4-24.83-10.19c-6.76-6.79-10.14-15.1-10.14-24.93V19.05c0-2.66.86-4.87,2.59-6.61,1.74-1.74,3.94-2.62,6.59-2.62s4.97.84,6.72,2.55c1.74,1.7,2.62,3.92,2.62,6.68v53.98c0,4.59,1.58,8.48,4.79,11.71,3.19,3.21,7.09,4.81,11.65,4.81s8.46-1.61,11.72-4.81c3.24-3.23,4.86-7.11,4.86-11.71s-1.62-8.51-4.86-11.77c-3.26-3.26-7.15-4.9-11.72-4.9-2.74,0-4.97-.84-6.65-2.54-1.7-1.71-2.54-3.92-2.54-6.68s.84-5,2.54-6.75c1.68-1.74,3.91-2.62,6.65-2.62Z"/>
        <path class="st21" d="M444.03,11.95c2.23,2.25,3.35,4.94,3.35,8.06s-1.11,5.8-3.35,8.05c-2.25,2.25-4.93,3.37-8.02,3.37s-5.8-1.12-8.03-3.37c-2.23-2.25-3.36-4.93-3.36-8.05s1.13-5.81,3.36-8.06c2.23-2.25,4.9-3.38,8.03-3.38s5.78,1.13,8.02,3.38ZM445.34,47.29c0-6.16-3.13-9.24-9.33-9.24-2.75,0-4.97.85-6.67,2.54-1.69,1.71-2.53,3.93-2.53,6.69v51.64c0,2.76.84,4.97,2.53,6.68,1.7,1.7,3.92,2.54,6.67,2.54s4.98-.84,6.72-2.54c1.72-1.72,2.61-3.92,2.61-6.68v-51.64Z"/>
        <path class="st21" d="M471.38,19.31v79.61c0,2.76-.87,4.97-2.61,6.68-1.73,1.7-3.97,2.54-6.71,2.54s-4.96-.84-6.65-2.54c-1.71-1.72-2.56-3.92-2.56-6.68V19.31c0-2.75.85-4.98,2.56-6.68,1.69-1.69,3.91-2.53,6.65-2.53,6.22,0,9.32,3.06,9.32,9.21Z"/>
        <path class="st21" d="M537.89,62.71l-17.56,17.21c-2,1.92-4.15,2.89-6.43,2.89-2.57,0-4.79-.97-6.65-2.89-1.88-1.93-2.82-4.18-2.82-6.76,0-2.29,1.01-4.46,3.03-6.47l9.87-9.79c-1.2-.18-2.38-.28-3.57-.28-4.58,0-8.47,1.63-11.66,4.84-3.21,3.21-4.82,7.11-4.82,11.7s1.61,8.52,4.82,11.77c3.19,3.26,7.08,4.89,11.66,4.89h12.2c2.75,0,4.95.86,6.66,2.56,1.68,1.69,2.53,3.92,2.53,6.66s-.85,5-2.53,6.75c-1.71,1.74-3.92,2.62-6.66,2.62h-12.2c-9.87,0-18.17-3.39-24.89-10.19-6.72-6.8-10.1-15.15-10.1-25.06s3.38-18.23,10.1-25c6.73-6.74,15.02-10.11,24.89-10.11s18.42,3.58,25.36,10.75c1.85,1.93,2.75,4.04,2.75,6.33,0,3.04-1.33,5.55-3.99,7.58Z"/>
      </g>
      <g>
        <path class="st21" d="M316.76,144.75v5.11h-21.29v-27.5h20.78v5.11h-14.46v5.97h12.77v4.95h-12.77v6.36h14.97Z"/>
        <path class="st21" d="M364.38,122.36l-11.9,27.5h-6.29l-11.86-27.5h6.88l8.37,19.64,8.49-19.64h6.33Z"/>
        <path class="st21" d="M404.45,144.75v5.11h-21.29v-27.5h20.78v5.11h-14.46v5.97h12.77v4.95h-12.77v6.36h14.97Z"/>
        <path class="st21" d="M451.23,122.36v27.5h-5.22l-13.71-16.7v16.7h-6.29v-27.5h5.26l13.67,16.7v-16.7h6.29Z"/>
        <path class="st21" d="M479.95,127.54h-8.8v-5.19h23.96v5.19h-8.8v22.31h-6.36v-22.31Z"/>
        <path class="st21" d="M517.57,149.44c-2.03-.59-3.66-1.35-4.89-2.3l2.16-4.79c1.18.86,2.58,1.56,4.2,2.08,1.62.52,3.25.79,4.87.79,1.81,0,3.14-.27,4.01-.81.86-.54,1.3-1.25,1.3-2.14,0-.65-.25-1.2-.77-1.63s-1.17-.78-1.96-1.04c-.8-.26-1.88-.55-3.24-.86-2.1-.5-3.81-1-5.15-1.49-1.34-.5-2.48-1.3-3.44-2.4s-1.43-2.57-1.43-4.4c0-1.6.43-3.04,1.3-4.34s2.17-2.32,3.91-3.08c1.74-.76,3.87-1.14,6.38-1.14,1.75,0,3.47.21,5.15.63,1.67.42,3.14,1.02,4.4,1.81l-1.96,4.83c-2.54-1.44-5.08-2.16-7.62-2.16-1.78,0-3.1.29-3.95.86-.85.58-1.28,1.34-1.28,2.28s.49,1.64,1.47,2.1c.98.46,2.48.91,4.5,1.36,2.09.5,3.81,1,5.15,1.49,1.33.5,2.48,1.28,3.44,2.36.96,1.07,1.43,2.53,1.43,4.36,0,1.57-.44,3-1.32,4.3-.88,1.3-2.19,2.32-3.95,3.08s-3.89,1.14-6.4,1.14c-2.17,0-4.28-.29-6.3-.88Z"/>
      </g>
    </g>
    <g>
      <g>
        <path class="st20" d="M77.09,138.46h-.54c-8.42,0-15.46-2.85-21.12-8.54-5.68-5.7-8.51-12.76-8.51-21.21v-30.44c0-3.02-1.09-5.63-3.29-7.77-2.21-2.15-4.8-3.24-7.83-3.24h-14.94v31.68c0,2.76-.86,4.97-2.59,6.68-1.75,1.7-3.97,2.54-6.73,2.54s-4.96-.84-6.64-2.54c-1.69-1.72-2.55-3.92-2.55-6.68V19.31c0-2.75.85-5,2.55-6.75,1.68-1.73,3.89-2.61,6.64-2.61s4.98.88,6.73,2.61c1.73,1.75,2.59,3.99,2.59,6.75v29.21l7,.14c2.92-.29,5.32-1.51,7.2-3.65,1.86-2.16,2.82-4.7,2.82-7.63,0-2.67.86-4.88,2.61-6.63,1.73-1.74,3.92-2.61,6.57-2.61s4.98.88,6.72,2.61c1.73,1.75,2.6,4,2.6,6.75,0,5.7-1.5,10.98-4.51,15.84,9.05,5.89,13.57,14.2,13.57,24.93v30.44c0,3.12,1.08,5.75,3.21,7.92,2.16,2.15,4.78,3.23,7.9,3.23h.54c6.13,0,9.19,3.12,9.19,9.37,0,2.75-.86,5-2.53,6.68-1.7,1.71-3.92,2.55-6.66,2.55Z"/>
        <path class="st20" d="M108.5,108.15h-6.04c-8.42,0-15.45-2.85-21.12-8.53-5.68-5.7-8.52-12.77-8.52-21.22V19.05c0-2.76.84-4.99,2.55-6.68,1.7-1.7,3.9-2.55,6.65-2.55s4.98.84,6.72,2.55c1.74,1.7,2.61,3.92,2.61,6.68v59.35c0,3.12,1.06,5.77,3.21,7.94,2.15,2.15,4.78,3.22,7.89,3.22h6.04c2.74,0,4.96.87,6.66,2.63,1.69,1.74,2.52,3.99,2.52,6.74s-.84,4.97-2.52,6.68c-1.7,1.7-3.92,2.54-6.66,2.54Z"/>
        <path class="st20" d="M245.65,67.66c0-3.03-1.08-5.62-3.24-7.77-2.14-2.15-4.74-3.26-7.75-3.26-3.64,0-6.58,1.43-8.78,4.29v38.01c0,2.76-.86,4.97-2.6,6.68-1.74,1.7-3.98,2.54-6.72,2.54s-4.98-.84-6.67-2.54c-1.69-1.72-2.53-3.92-2.53-6.68v-31.27c0-3.03-1.09-5.62-3.29-7.77-2.18-2.15-4.81-3.26-7.81-3.26s-5.73,1.07-7.88,3.18c-2.15,2.11-3.24,4.74-3.24,7.84v31.27c0,2.76-.84,4.97-2.53,6.68-1.68,1.7-3.92,2.54-6.65,2.54s-4.98-.84-6.71-2.54c-1.74-1.72-2.62-3.92-2.62-6.68v-31.27c0-8.35,2.85-15.37,8.59-21.06,5.72-5.69,12.72-8.54,21.05-8.54,7.22,0,13.62,2.34,19.2,7.02,5.49-4.68,11.87-7.02,19.19-7.02,8.33,0,15.31,2.85,20.98,8.54,5.68,5.69,8.5,12.71,8.5,21.06v41.05c0,3.12,1.08,5.75,3.24,7.92,2.14,2.15,4.77,3.23,7.88,3.23h.55c2.75,0,4.98.88,6.73,2.62,1.73,1.74,2.59,3.99,2.59,6.75s-.86,5-2.59,6.68c-1.76,1.71-3.99,2.55-6.73,2.55h-.55c-8.31,0-15.34-2.88-21.04-8.61-5.73-5.74-8.57-12.79-8.57-21.14v-41.05Z"/>
        <path class="st20" d="M306.67,38.05c9.88,0,18.19,3.37,24.94,10.11,6.79,6.77,10.16,15.09,10.16,25s-3.38,18.27-10.16,25.06c-6.75,6.8-15.07,10.19-24.94,10.19s-18.17-3.39-24.9-10.19c-6.72-6.8-10.08-15.15-10.08-25.06s3.37-18.23,10.08-25c6.73-6.74,15.03-10.11,24.9-10.11ZM306.67,56.63c-4.58,0-8.47,1.63-11.67,4.84-3.19,3.21-4.79,7.11-4.79,11.7s1.6,8.52,4.79,11.77c3.2,3.26,7.09,4.89,11.67,4.89s8.46-1.63,11.73-4.89c3.24-3.25,4.88-7.17,4.88-11.77s-1.65-8.49-4.88-11.7c-3.26-3.22-7.15-4.84-11.73-4.84Z"/>
        <path class="st20" d="M384.3,37.78c9.88,0,18.19,3.39,24.96,10.2,6.77,6.79,10.14,15.14,10.14,25.06s-3.4,18.14-10.21,24.93c-6.81,6.8-15.1,10.19-24.89,10.19s-18.06-3.4-24.83-10.19c-6.76-6.79-10.14-15.1-10.14-24.93V19.05c0-2.66.86-4.87,2.59-6.61,1.74-1.74,3.94-2.62,6.59-2.62s4.97.84,6.72,2.55c1.74,1.7,2.62,3.92,2.62,6.68v53.98c0,4.59,1.58,8.48,4.79,11.71,3.19,3.21,7.09,4.81,11.65,4.81s8.46-1.61,11.72-4.81c3.24-3.23,4.86-7.11,4.86-11.71s-1.62-8.51-4.86-11.77c-3.26-3.26-7.15-4.9-11.72-4.9-2.74,0-4.97-.84-6.65-2.54-1.7-1.71-2.54-3.92-2.54-6.68s.84-5,2.54-6.75c1.68-1.74,3.91-2.62,6.65-2.62Z"/>
        <path class="st20" d="M444.03,11.95c2.23,2.25,3.35,4.94,3.35,8.06s-1.11,5.8-3.35,8.05c-2.25,2.25-4.93,3.37-8.02,3.37s-5.8-1.12-8.03-3.37c-2.23-2.25-3.36-4.93-3.36-8.05s1.13-5.81,3.36-8.06c2.23-2.25,4.9-3.38,8.03-3.38s5.78,1.13,8.02,3.38ZM445.34,47.29c0-6.16-3.13-9.24-9.33-9.24-2.75,0-4.97.85-6.67,2.54-1.69,1.71-2.53,3.93-2.53,6.69v51.64c0,2.76.84,4.97,2.53,6.68,1.7,1.7,3.92,2.54,6.67,2.54s4.98-.84,6.72-2.54c1.72-1.72,2.61-3.92,2.61-6.68v-51.64Z"/>
        <path class="st20" d="M471.38,19.31v79.61c0,2.76-.87,4.97-2.61,6.68-1.73,1.7-3.97,2.54-6.71,2.54s-4.96-.84-6.65-2.54c-1.71-1.72-2.56-3.92-2.56-6.68V19.31c0-2.75.85-4.98,2.56-6.68,1.69-1.69,3.91-2.53,6.65-2.53,6.22,0,9.32,3.06,9.32,9.21Z"/>
        <path class="st20" d="M537.89,62.71l-17.56,17.21c-2,1.92-4.15,2.89-6.43,2.89-2.57,0-4.79-.97-6.65-2.89-1.88-1.93-2.82-4.18-2.82-6.76,0-2.29,1.01-4.46,3.03-6.47l9.87-9.79c-1.2-.18-2.38-.28-3.57-.28-4.58,0-8.47,1.63-11.66,4.84-3.21,3.21-4.82,7.11-4.82,11.7s1.61,8.52,4.82,11.77c3.19,3.26,7.08,4.89,11.66,4.89h12.2c2.75,0,4.95.86,6.66,2.56,1.68,1.69,2.53,3.92,2.53,6.66s-.85,5-2.53,6.75c-1.71,1.74-3.92,2.62-6.66,2.62h-12.2c-9.87,0-18.17-3.39-24.89-10.19-6.72-6.8-10.1-15.15-10.1-25.06s3.38-18.23,10.1-25c6.73-6.74,15.02-10.11,24.89-10.11s18.42,3.58,25.36,10.75c1.85,1.93,2.75,4.04,2.75,6.33,0,3.04-1.33,5.55-3.99,7.58Z"/>
      </g>
      <g>
        <path class="st20" d="M316.76,144.75v5.11h-21.29v-27.5h20.78v5.11h-14.46v5.97h12.77v4.95h-12.77v6.36h14.97Z"/>
        <path class="st20" d="M364.38,122.36l-11.9,27.5h-6.29l-11.86-27.5h6.88l8.37,19.64,8.49-19.64h6.33Z"/>
        <path class="st20" d="M404.45,144.75v5.11h-21.29v-27.5h20.78v5.11h-14.46v5.97h12.77v4.95h-12.77v6.36h14.97Z"/>
        <path class="st20" d="M451.23,122.36v27.5h-5.22l-13.71-16.7v16.7h-6.29v-27.5h5.26l13.67,16.7v-16.7h6.29Z"/>
        <path class="st20" d="M479.95,127.54h-8.8v-5.19h23.96v5.19h-8.8v22.31h-6.36v-22.31Z"/>
        <path class="st20" d="M517.57,149.44c-2.03-.59-3.66-1.35-4.89-2.3l2.16-4.79c1.18.86,2.58,1.56,4.2,2.08,1.62.52,3.25.79,4.87.79,1.81,0,3.14-.27,4.01-.81.86-.54,1.3-1.25,1.3-2.14,0-.65-.25-1.2-.77-1.63s-1.17-.78-1.96-1.04c-.8-.26-1.88-.55-3.24-.86-2.1-.5-3.81-1-5.15-1.49-1.34-.5-2.48-1.3-3.44-2.4s-1.43-2.57-1.43-4.4c0-1.6.43-3.04,1.3-4.34s2.17-2.32,3.91-3.08c1.74-.76,3.87-1.14,6.38-1.14,1.75,0,3.47.21,5.15.63,1.67.42,3.14,1.02,4.4,1.81l-1.96,4.83c-2.54-1.44-5.08-2.16-7.62-2.16-1.78,0-3.1.29-3.95.86-.85.58-1.28,1.34-1.28,2.28s.49,1.64,1.47,2.1c.98.46,2.48.91,4.5,1.36,2.09.5,3.81,1,5.15,1.49,1.33.5,2.48,1.28,3.44,2.36.96,1.07,1.43,2.53,1.43,4.36,0,1.57-.44,3-1.32,4.3-.88,1.3-2.19,2.32-3.95,3.08s-3.89,1.14-6.4,1.14c-2.17,0-4.28-.29-6.3-.88Z"/>
      </g>
    </g>
  </g>
  <g>
    <path class="st21" d="M77.09,138.46h-.54c-8.42,0-15.46-2.85-21.12-8.54-5.68-5.7-8.51-12.76-8.51-21.21v-30.44c0-3.02-1.09-5.63-3.29-7.77-2.21-2.15-4.8-3.24-7.83-3.24h-14.94v31.68c0,2.76-.86,4.97-2.59,6.68-1.75,1.7-3.97,2.54-6.73,2.54s-4.96-.84-6.64-2.54c-1.69-1.72-2.55-3.92-2.55-6.68V19.31c0-2.75.85-5,2.55-6.75,1.68-1.73,3.89-2.61,6.64-2.61s4.98.88,6.73,2.61c1.73,1.75,2.59,3.99,2.59,6.75v29.21l7,.14c2.92-.29,5.32-1.51,7.2-3.65,1.86-2.16,2.82-4.7,2.82-7.63,0-2.67.86-4.88,2.61-6.63,1.73-1.74,3.92-2.61,6.57-2.61s4.98.88,6.72,2.61c1.73,1.75,2.6,4,2.6,6.75,0,5.7-1.5,10.98-4.51,15.84,9.05,5.89,13.57,14.2,13.57,24.93v30.44c0,3.12,1.08,5.75,3.21,7.92,2.16,2.15,4.78,3.23,7.9,3.23h.54c6.13,0,9.19,3.12,9.19,9.37,0,2.75-.86,5-2.53,6.68-1.7,1.71-3.92,2.55-6.66,2.55Z"/>
    <path class="st21" d="M67.62,131.38c2.71,1.01,5.67,1.51,8.93,1.51h.54c1.6,0,2.29-.49,2.72-.91.14-.15.31-.34.45-.6h-12.64Z"/>
  </g>
  <g>
    <path class="st21" d="M245.65,67.66c0-3.03-1.08-5.62-3.24-7.77-2.14-2.15-4.74-3.26-7.75-3.26-3.64,0-6.58,1.43-8.78,4.29v38.01c0,2.76-.86,4.97-2.6,6.68-1.74,1.7-3.98,2.54-6.72,2.54s-4.98-.84-6.67-2.54c-1.69-1.72-2.53-3.92-2.53-6.68v-31.27c0-3.03-1.09-5.62-3.29-7.77-2.18-2.15-4.81-3.26-7.81-3.26s-5.73,1.07-7.88,3.18c-2.15,2.11-3.24,4.74-3.24,7.84v31.27c0,2.76-.84,4.97-2.53,6.68-1.68,1.7-3.92,2.54-6.65,2.54s-4.98-.84-6.71-2.54c-1.74-1.72-2.62-3.92-2.62-6.68v-31.27c0-8.35,2.85-15.37,8.59-21.06,5.72-5.69,12.72-8.54,21.05-8.54,7.22,0,13.62,2.34,19.2,7.02,5.49-4.68,11.87-7.02,19.19-7.02,8.33,0,15.31,2.85,20.98,8.54,5.68,5.69,8.5,12.71,8.5,21.06v41.05c0,3.12,1.08,5.75,3.24,7.92,2.14,2.15,4.77,3.23,7.88,3.23h.55c2.75,0,4.98.88,6.73,2.62,1.73,1.74,2.59,3.99,2.59,6.75s-.86,5-2.59,6.68c-1.76,1.71-3.99,2.55-6.73,2.55h-.55c-8.31,0-15.34-2.88-21.04-8.61-5.73-5.74-8.57-12.79-8.57-21.14v-41.05Z"/>
    <g class="st22">
      <path class="st19" d="M250.28,133.77c-.77-.78-1.5-1.58-2.19-2.4H91.71c-.25,2.03-.87,3.9-1.82,5.57h163.99c-1.24-.96-2.45-2.01-3.6-3.17Z"/>
      <path class="st19" d="M266.47,131.38c2.68,1.01,5.6,1.51,8.8,1.51h.55c1.63,0,2.36-.49,2.85-.98.14-.14.29-.31.43-.54h-12.62Z"/>
    </g>
  </g>
  <g>
    <g>
      <g>
        <path d="M113.37,169.65l-2.2,2.3v4.15h-3.78v-16.42h3.78v7.67l7.27-7.67h4.22l-6.8,7.32,7.2,9.1h-4.43l-5.25-6.45Z"/>
        <path d="M137.59,174.43c-1.31-1.3-1.96-3.15-1.96-5.56v-9.19h3.8v9.05c0,2.94,1.22,4.41,3.66,4.41,1.19,0,2.1-.36,2.72-1.07.62-.71.94-1.83.94-3.34v-9.05h3.75v9.19c0,2.41-.65,4.26-1.96,5.56-1.31,1.3-3.13,1.95-5.48,1.95s-4.17-.65-5.48-1.95Z"/>
        <path d="M175.97,172.58h-7.62l-1.45,3.52h-3.89l7.32-16.42h3.75l7.34,16.42h-3.99l-1.45-3.52ZM174.78,169.7l-2.6-6.29-2.6,6.29h5.21Z"/>
        <path d="M194.39,159.68h3.8v13.32h8.23v3.1h-12.03v-16.42Z"/>
        <path d="M230.77,172.58h-7.62l-1.45,3.52h-3.89l7.32-16.42h3.75l7.34,16.42h-3.99l-1.45-3.52ZM229.57,169.7l-2.6-6.29-2.6,6.29h5.21Z"/>
        <path d="M267.07,159.68h3.8v13.32h8.23v3.1h-12.03v-16.42Z"/>
        <path d="M303.45,172.58h-7.62l-1.45,3.52h-3.89l7.32-16.42h3.75l7.34,16.42h-3.99l-1.45-3.52ZM302.26,169.7l-2.6-6.29-2.6,6.29h5.21Z"/>
        <path d="M336.81,176.1l-.02-9.85-4.83,8.12h-1.71l-4.81-7.9v9.64h-3.56v-16.42h3.14l6.15,10.2,6.05-10.2h3.12l.05,16.42h-3.57Z"/>
        <path d="M366.42,160.41c1.07.48,1.9,1.17,2.47,2.06.58.89.87,1.95.87,3.17s-.29,2.26-.87,3.15c-.58.9-1.4,1.59-2.47,2.06s-2.33.72-3.79.72h-3.31v4.53h-3.8v-16.42h7.11c1.45,0,2.72.24,3.79.73ZM365.02,167.74c.59-.49.89-1.19.89-2.1s-.3-1.63-.89-2.12c-.59-.49-1.46-.74-2.6-.74h-3.1v5.7h3.1c1.14,0,2.01-.25,2.6-.74Z"/>
        <path d="M385.47,174.43c-1.31-1.3-1.96-3.15-1.96-5.56v-9.19h3.8v9.05c0,2.94,1.22,4.41,3.66,4.41,1.19,0,2.1-.36,2.72-1.07.62-.71.94-1.83.94-3.34v-9.05h3.75v9.19c0,2.41-.65,4.26-1.96,5.56-1.31,1.3-3.13,1.95-5.48,1.95s-4.17-.65-5.48-1.95Z"/>
        <path d="M423.85,176.1l-3.17-4.57h-3.49v4.57h-3.8v-16.42h7.11c1.45,0,2.72.24,3.79.73,1.07.48,1.9,1.17,2.47,2.06.58.89.87,1.95.87,3.17s-.29,2.27-.88,3.15c-.59.88-1.42,1.56-2.5,2.03l3.68,5.28h-4.08ZM422.89,163.52c-.59-.49-1.46-.74-2.6-.74h-3.1v5.72h3.1c1.14,0,2.01-.25,2.6-.75.59-.5.89-1.2.89-2.11s-.3-1.63-.89-2.12Z"/>
      </g>
      <g>
        <polygon class="st1" points="447.68 165.99 447.68 167.99 530.28 168.39 530.29 166.39 447.68 165.99"/>
        <polygon class="st0" points="82.61 164.23 0 163.83 0 165.83 82.61 166.23 82.61 164.23"/>
      </g>
    </g>
    <g>
      <g>
        <path class="st3" d="M113.37,169.65l-2.2,2.3v4.15h-3.78v-16.42h3.78v7.67l7.27-7.67h4.22l-6.8,7.32,7.2,9.1h-4.43l-5.25-6.45Z"/>
        <path class="st8" d="M137.59,174.43c-1.31-1.3-1.96-3.15-1.96-5.56v-9.19h3.8v9.05c0,2.94,1.22,4.41,3.66,4.41,1.19,0,2.1-.36,2.72-1.07.62-.71.94-1.83.94-3.34v-9.05h3.75v9.19c0,2.41-.65,4.26-1.96,5.56-1.31,1.3-3.13,1.95-5.48,1.95s-4.17-.65-5.48-1.95Z"/>
        <path class="st7" d="M175.97,172.58h-7.62l-1.45,3.52h-3.89l7.32-16.42h3.75l7.34,16.42h-3.99l-1.45-3.52ZM174.78,169.7l-2.6-6.29-2.6,6.29h5.21Z"/>
        <path class="st4" d="M194.39,159.68h3.8v13.32h8.23v3.1h-12.03v-16.42Z"/>
        <path class="st6" d="M230.77,172.58h-7.62l-1.45,3.52h-3.89l7.32-16.42h3.75l7.34,16.42h-3.99l-1.45-3.52ZM229.57,169.7l-2.6-6.29-2.6,6.29h5.21Z"/>
        <path class="st5" d="M267.07,159.68h3.8v13.32h8.23v3.1h-12.03v-16.42Z"/>
        <path class="st2" d="M303.45,172.58h-7.62l-1.45,3.52h-3.89l7.32-16.42h3.75l7.34,16.42h-3.99l-1.45-3.52ZM302.26,169.7l-2.6-6.29-2.6,6.29h5.21Z"/>
        <path class="st15" d="M336.81,176.1l-.02-9.85-4.83,8.12h-1.71l-4.81-7.9v9.64h-3.56v-16.42h3.14l6.15,10.2,6.05-10.2h3.12l.05,16.42h-3.57Z"/>
        <path class="st14" d="M366.42,160.41c1.07.48,1.9,1.17,2.47,2.06.58.89.87,1.95.87,3.17s-.29,2.26-.87,3.15c-.58.9-1.4,1.59-2.47,2.06s-2.33.72-3.79.72h-3.31v4.53h-3.8v-16.42h7.11c1.45,0,2.72.24,3.79.73ZM365.02,167.74c.59-.49.89-1.19.89-2.1s-.3-1.63-.89-2.12c-.59-.49-1.46-.74-2.6-.74h-3.1v5.7h3.1c1.14,0,2.01-.25,2.6-.74Z"/>
        <path class="st11" d="M385.47,174.43c-1.31-1.3-1.96-3.15-1.96-5.56v-9.19h3.8v9.05c0,2.94,1.22,4.41,3.66,4.41,1.19,0,2.1-.36,2.72-1.07.62-.71.94-1.83.94-3.34v-9.05h3.75v9.19c0,2.41-.65,4.26-1.96,5.56-1.31,1.3-3.13,1.95-5.48,1.95s-4.17-.65-5.48-1.95Z"/>
        <path class="st10" d="M423.85,176.1l-3.17-4.57h-3.49v4.57h-3.8v-16.42h7.11c1.45,0,2.72.24,3.79.73,1.07.48,1.9,1.17,2.47,2.06.58.89.87,1.95.87,3.17s-.29,2.27-.88,3.15c-.59.88-1.42,1.56-2.5,2.03l3.68,5.28h-4.08ZM422.89,163.52c-.59-.49-1.46-.74-2.6-.74h-3.1v5.72h3.1c1.14,0,2.01-.25,2.6-.75.59-.5.89-1.2.89-2.11s-.3-1.63-.89-2.12Z"/>
      </g>
      <g>
        <g>
          <polygon class="st17" points="447.68 165.99 447.68 167.99 530.28 168.39 530.29 166.39 447.68 165.99"/>
          <polygon class="st12" points="82.61 164.23 0 163.83 0 165.83 82.61 166.23 82.61 164.23"/>
        </g>
        <g>
          <polygon class="st13" points="447.68 165.99 447.68 167.99 530.28 168.39 530.29 166.39 447.68 165.99"/>
          <polygon class="st16" points="82.61 164.23 0 163.83 0 165.83 82.61 166.23 82.61 164.23"/>
        </g>
        <g>
          <polygon class="st9" points="447.68 165.99 447.68 167.99 530.28 168.39 530.29 166.39 447.68 165.99"/>
          <polygon class="st18" points="82.61 164.23 0 163.83 0 165.83 82.61 166.23 82.61 164.23"/>
        </g>
      </g>
    </g>
  </g>
  <path class="st21" d="M82.61,144.07v.17h-.53c.18-.05.36-.1.53-.17Z"/>
  <path class="st21" d="M82.61,122.24v2l-14.66-.07-9.03-.04c-.56-.65-1.08-1.32-1.56-2.01l7.71.04,17.54.08Z"/>
  <g>
    <path class="st21" d="M77.09,138.46h-.54c-8.42,0-15.46-2.85-21.12-8.54-5.68-5.7-8.51-12.76-8.51-21.21v-30.44c0-3.02-1.09-5.63-3.29-7.77-2.21-2.15-4.8-3.24-7.83-3.24h-14.94v31.68c0,2.76-.86,4.97-2.59,6.68-1.75,1.7-3.97,2.54-6.73,2.54s-4.96-.84-6.64-2.54c-1.69-1.72-2.55-3.92-2.55-6.68V19.31c0-2.75.85-5,2.55-6.75,1.68-1.73,3.89-2.61,6.64-2.61s4.98.88,6.73,2.61c1.73,1.75,2.59,3.99,2.59,6.75v29.21l7,.14c2.92-.29,5.32-1.51,7.2-3.65,1.86-2.16,2.82-4.7,2.82-7.63,0-2.67.86-4.88,2.61-6.63,1.73-1.74,3.92-2.61,6.57-2.61s4.98.88,6.72,2.61c1.73,1.75,2.6,4,2.6,6.75,0,5.7-1.5,10.98-4.51,15.84,9.05,5.89,13.57,14.2,13.57,24.93v30.44c0,3.12,1.08,5.75,3.21,7.92,2.16,2.15,4.78,3.23,7.9,3.23h.54c6.13,0,9.19,3.12,9.19,9.37,0,2.75-.86,5-2.53,6.68-1.7,1.71-3.92,2.55-6.66,2.55Z"/>
    <path class="st21" d="M65.07,122.16c.9.77,1.87,1.45,2.88,2.01l14.66.07v-2l-17.54-.08Z"/>
  </g>
  <path class="st21" d="M75.92,131.94h1.43c-.09.02-.17.02-.26.02h-.54c-.21,0-.42,0-.63-.02Z"/>
  <path class="st21" d="M64.8,121.93c.86.76,1.77,1.43,2.73,2h-8.78c-.56-.66-1.07-1.32-1.53-2.01h7.58Z"/>
  <path class="st21" d="M59.22,111.92c.12.68.27,1.35.47,2h-5.78c-.14-.66-.24-1.33-.31-2.01h5.62Z"/>
</svg>